<?xml version="1.0" standalone="no"?>
<!DOCTYPE svg PUBLIC "-//W3C//DTD SVG 20010904//EN"
 "http://www.w3.org/TR/2001/REC-SVG-20010904/DTD/svg10.dtd">
<svg version="1.0" xmlns="http://www.w3.org/2000/svg"
 width="740.000000pt" height="740.000000pt" viewBox="0 0 740.000000 740.000000"
 preserveAspectRatio="xMidYMid meet">

<g transform="translate(0.000000,740.000000) scale(0.100000,-0.100000)"
fill="#000000" stroke="none">
<path d="M740 3700 l0 -1590 2960 0 2960 0 0 1590 0 1590 -2960 0 -2960 0 0
-1590z m390 0 l0 -1520 -155 0 -155 0 0 243 c0 133 0 463 0 732 0 270 0 844 0
1278 l0 787 155 0 155 0 0 -1520z m5068 -3 l2 -1517 -2497 2 -2498 3 -3 1295
c-2 712 0 1395 4 1518 l6 222 2492 -2 2491 -3 3 -1518z m390 23 c1 -822 0
-1505 -3 -1518 -5 -22 -8 -22 -160 -22 l-155 0 0 1520 0 1521 158 -3 157 -3 3
-1495z"/>
</g>
</svg>
